<?xml version="1.0" encoding="utf-8"?>
<svg viewBox="0 0 1067 520" style="enable-background:new 0 0 1080 1080;" xmlns="http://www.w3.org/2000/svg">
  <defs>
    <style type="text/css">
	.st0{fill:#020203;}
</style>
  </defs>
  <g style="" transform="matrix(1.617361, 0, 0, 1.60892, -1507.420166, -657.769531)">
    <g>
      <path class="st0" d="M 1054.628 542.731 C 1054.628 549.131 1052.328 554.631 1047.728 559.231 C 1043.128 563.731 1037.728 565.931 1031.428 565.931 L 938.528 565.931 L 938.528 612.331 L 1054.628 612.331 C 1067.328 612.331 1078.228 607.831 1087.328 598.731 C 1096.528 589.831 1101.128 578.831 1101.128 565.931 L 1101.128 426.631 L 1054.728 426.631 L 1054.728 542.731 Z" style="fill: rgb(255, 255, 255);"/>
      <path class="st0" d="M 1286.728 438.231 C 1277.828 429.031 1265.228 424.231 1249.028 423.731 C 1232.928 424.231 1220.328 429.031 1211.328 438.231 C 1208.328 441.131 1205.428 445.031 1202.628 449.831 L 1121.328 612.431 L 1179.428 612.431 L 1196.828 577.631 L 1244.328 482.431 C 1245.628 480.331 1247.228 479.331 1249.028 479.331 C 1250.828 479.331 1252.328 480.331 1253.528 482.431 L 1301.228 577.631 L 1318.628 612.431 L 1376.628 612.431 L 1295.328 449.831 C 1292.628 445.031 1289.728 441.131 1286.728 438.231 Z" style="fill: rgb(255, 255, 255);"/>
      <path class="st0" d="M 1582.928 532.131 C 1580.528 525.931 1577.228 520.431 1573.228 515.431 L 1573.028 515.431 C 1576.828 510.731 1579.928 505.531 1582.228 499.631 C 1584.628 493.631 1585.828 487.131 1585.828 480.031 C 1585.828 472.231 1584.328 464.831 1581.428 457.931 C 1578.528 451.031 1574.428 445.131 1569.228 440.031 C 1564.028 434.931 1558.028 431.031 1551.128 428.031 C 1544.228 425.131 1536.928 423.631 1529.028 423.631 L 1437.728 423.631 L 1398.128 423.631 L 1398.128 612.331 L 1437.728 612.331 L 1437.728 612.331 L 1526.728 612.331 C 1535.028 612.331 1542.828 610.731 1550.028 607.631 C 1557.328 604.531 1563.628 600.331 1569.128 594.931 C 1574.628 589.531 1578.928 583.331 1582.028 576.031 C 1585.128 568.731 1586.728 560.931 1586.728 552.731 C 1586.728 545.331 1585.428 538.431 1582.928 532.131 Z M 1540.228 564.531 C 1536.828 567.931 1532.928 569.631 1528.428 569.631 L 1437.728 569.631 L 1437.728 536.731 L 1528.928 536.731 C 1533.428 536.731 1537.228 538.231 1540.428 541.131 C 1543.728 544.131 1545.328 547.931 1545.328 552.731 C 1545.328 557.231 1543.628 561.131 1540.228 564.531 Z M 1542.028 491.031 C 1538.928 493.831 1535.328 495.231 1531.128 495.231 L 1437.728 495.231 L 1437.728 464.131 L 1530.628 464.131 C 1534.828 464.131 1538.528 465.731 1541.828 468.931 C 1545.028 472.131 1546.628 475.831 1546.628 480.031 C 1546.628 484.531 1545.128 488.231 1542.028 491.031 Z" style="fill: rgb(255, 255, 255);"/>
    </g>
    <g transform="matrix(1, 0, 0, 1, 714.927734, 36.031345)">
      <path class="st0" d="M266.7,674.5h-10.8V668c-1.8,2.5-3.9,4.4-6.4,5.6c-2.4,1.2-4.9,1.8-7.4,1.8c-5.1,0-9.4-2-13-6.1 c-3.6-4.1-5.4-9.8-5.4-17.1c0-7.5,1.8-13.1,5.3-17c3.5-3.9,7.9-5.8,13.3-5.8c4.9,0,9.2,2,12.8,6.1v-21.9h11.6V674.5z M235.6,651.5 c0,4.7,0.6,8.1,1.9,10.2c1.9,3,4.5,4.6,7.9,4.6c2.7,0,5-1.1,6.8-3.4c1.9-2.3,2.8-5.7,2.8-10.2c0-5.1-0.9-8.7-2.7-10.9 c-1.8-2.2-4.2-3.3-7-3.3c-2.8,0-5.1,1.1-6.9,3.3C236.5,643.9,235.6,647.1,235.6,651.5z" style="fill: rgb(255, 255, 255);"/>
      <path class="st0" d="M346.1,624.5v-10.8h11.6v10.8H346.1z M346.1,674.5v-44h11.6v44H346.1z" style="fill: rgb(255, 255, 255);"/>
      <path class="st0" d="M436.5,677.4l13.3,1.6c0.2,1.5,0.7,2.6,1.5,3.2c1.1,0.8,2.8,1.2,5.2,1.2c3,0,5.3-0.5,6.8-1.4 c1-0.6,1.8-1.6,2.3-2.9c0.4-1,0.5-2.7,0.5-5.3v-6.4c-3.5,4.8-7.9,7.1-13.2,7.1c-5.9,0-10.6-2.5-14-7.5c-2.7-4-4.1-8.9-4.1-14.8 c0-7.4,1.8-13,5.3-16.9c3.6-3.9,8-5.8,13.2-5.8c5.4,0,9.9,2.4,13.5,7.2v-6.2h10.9v39.5c0,5.2-0.4,9.1-1.3,11.6s-2.1,4.6-3.6,6.1 s-3.6,2.6-6.2,3.4c-2.6,0.8-5.9,1.2-9.8,1.2c-7.5,0-12.8-1.3-15.9-3.8c-3.1-2.6-4.7-5.8-4.7-9.7 C436.4,678.4,436.4,677.9,436.5,677.4z M446.9,651.5c0,4.7,0.9,8.1,2.7,10.3s4,3.3,6.7,3.3c2.8,0,5.2-1.1,7.2-3.3 c2-2.2,2.9-5.5,2.9-9.9c0-4.6-0.9-7.9-2.8-10.2c-1.9-2.2-4.3-3.3-7.1-3.3c-2.8,0-5.1,1.1-6.9,3.3 C447.8,643.8,446.9,647.1,446.9,651.5z" style="fill: rgb(255, 255, 255);"/>
      <path class="st0" d="M557.3,624.5v-10.8h11.6v10.8H557.3z M557.3,674.5v-44h11.6v44H557.3z" style="fill: rgb(255, 255, 255);"/>
      <path class="st0" d="M669,630.5v9.3h-8v17.7c0,3.6,0.1,5.7,0.2,6.3c0.2,0.6,0.5,1.1,1,1.5c0.5,0.4,1.2,0.6,2,0.6 c1.1,0,2.6-0.4,4.7-1.1l1,9c-2.7,1.2-5.8,1.7-9.2,1.7c-2.1,0-4-0.4-5.7-1.1c-1.7-0.7-2.9-1.6-3.7-2.7c-0.8-1.1-1.3-2.6-1.6-4.5 c-0.2-1.4-0.4-4.1-0.4-8.2v-19.2H644v-9.3h5.3v-8.7l11.7-6.8v15.5H669z" style="fill: rgb(255, 255, 255);"/>
      <path class="st0" d="M753.6,643.9l-10.6-1.9c1.2-4.3,3.2-7.4,6.1-9.4c2.9-2,7.2-3.1,12.9-3.1c5.2,0,9.1,0.6,11.6,1.8 c2.5,1.2,4.3,2.8,5.4,4.7c1,1.9,1.6,5.4,1.6,10.4l-0.1,13.6c0,3.9,0.2,6.7,0.6,8.6s1.1,3.8,2.1,5.9h-11.5 c-0.3-0.8-0.7-1.9-1.1-3.4c-0.2-0.7-0.3-1.1-0.4-1.4c-2,1.9-4.1,3.4-6.4,4.4s-4.7,1.5-7.3,1.5c-4.5,0-8.1-1.2-10.7-3.7 c-2.6-2.5-3.9-5.6-3.9-9.3c0-2.5,0.6-4.7,1.8-6.7s2.9-3.4,5-4.5c2.1-1,5.2-1.9,9.3-2.7c5.4-1,9.2-2,11.3-2.9v-1.2 c0-2.2-0.6-3.8-1.7-4.8c-1.1-1-3.2-1.4-6.3-1.4c-2.1,0-3.7,0.4-4.8,1.2C755.3,640.4,754.4,641.8,753.6,643.9z M769.2,653.3 c-1.5,0.5-3.9,1.1-7.1,1.8c-3.2,0.7-5.3,1.4-6.3,2c-1.5,1.1-2.3,2.4-2.3,4.1c0,1.6,0.6,3,1.8,4.2s2.8,1.8,4.6,1.8 c2.1,0,4.1-0.7,6-2.1c1.4-1,2.3-2.3,2.8-3.9c0.3-1,0.5-2.9,0.5-5.7V653.3z" style="fill: rgb(255, 255, 255);"/>
      <path class="st0" d="M860,674.5v-60.8h11.6v60.8H860z" style="fill: rgb(255, 255, 255);"/>
    </g>
  </g>
</svg>