<?xml version="1.0" encoding="utf-8"?>
<svg viewBox="0 0 667.2 209.7" style="enable-background:new 0 0 667.2 209.7;" xmlns="http://www.w3.org/2000/svg">
  <defs>
    <style type="text/css">
	.st0{fill:#020203;}
</style>
  </defs>
  <g>
    <path class="st0" d="M126.1,129.7c0,6.4-2.3,11.9-6.9,16.5c-4.6,4.5-10,6.7-16.3,6.7H10v46.4h116.1c12.7,0,23.6-4.5,32.7-13.6 c9.2-8.9,13.8-19.9,13.8-32.8V13.6h-46.4v116.1H126.1z" style="fill: rgb(255, 255, 255);"/>
    <path class="st0" d="M358.2,25.2c-8.9-9.2-21.5-14-37.7-14.5c-16.1,0.5-28.7,5.3-37.7,14.5c-3,2.9-5.9,6.8-8.7,11.6l-81.3,162.6 h58.1l17.4-34.8l47.5-95.2c1.3-2.1,2.9-3.1,4.7-3.1s3.3,1,4.5,3.1l47.7,95.2l17.4,34.8h58L366.8,36.8 C364.1,32,361.2,28.1,358.2,25.2z" style="fill: rgb(255, 255, 255);"/>
    <path class="st0" d="M654.4,119.1c-2.4-6.2-5.7-11.7-9.7-16.7h-0.2c3.8-4.7,6.9-9.9,9.2-15.8c2.4-6,3.6-12.5,3.6-19.6 c0-7.8-1.5-15.2-4.4-22.1s-7-12.8-12.2-17.9s-11.2-9-18.1-12c-6.9-2.9-14.2-4.4-22.1-4.4h-91.3h-39.6v188.7h39.6l0,0h89 c8.3,0,16.1-1.6,23.3-4.7c7.3-3.1,13.6-7.3,19.1-12.7s9.8-11.6,12.9-18.9c3.1-7.3,4.7-15.1,4.7-23.3 C658.2,132.3,656.9,125.4,654.4,119.1z M611.7,151.5c-3.4,3.4-7.3,5.1-11.8,5.1h-90.7v-32.9h91.2c4.5,0,8.3,1.5,11.5,4.4 c3.3,3,4.9,6.8,4.9,11.6C616.8,144.2,615.1,148.1,611.7,151.5z M613.5,78c-3.1,2.8-6.7,4.2-10.9,4.2h-93.4V51.1h92.9 c4.2,0,7.9,1.6,11.2,4.8c3.2,3.2,4.8,6.9,4.8,11.1C618.1,71.5,616.6,75.2,613.5,78z" style="fill: rgb(255, 255, 255);"/>
  </g>
</svg>